HIERARCHY
ROOT Hips
{
  OFFSET 0.000000 0.000000 0.000000
  CHANNELS 6 Xposition Yposition Zposition Zrotation Xrotation Yrotation
  JOINT RightUpLeg
  {
    OFFSET -5.467922 -9.171772 -0.725936
    CHANNELS 3 Zrotation Xrotation Yrotation
    JOINT RightLeg
    {
      OFFSET -10.507757 -36.565968 2.283604
      CHANNELS 3 Zrotation Xrotation Yrotation
      JOINT RightFoot
      {
        OFFSET -0.543901 -35.146286 -23.616415
        CHANNELS 3 Zrotation Xrotation Yrotation
        JOINT RightToeBase
        {
          OFFSET -8.092607 -6.158295 11.906448
          CHANNELS 3 Zrotation Xrotation Yrotation
          End Site
          {
            OFFSET 0.000000 4.000000 0.000000
          }
        }
      }
    }
  }
  JOINT LeftUpLeg
  {
    OFFSET 6.131578 -8.108979 0.649224
    CHANNELS 3 Zrotation Xrotation Yrotation
    JOINT LeftLeg
    {
      OFFSET 14.360160 -33.201935 17.879681
      CHANNELS 3 Zrotation Xrotation Yrotation
      JOINT LeftFoot
      {
        OFFSET 6.967619 -40.822662 13.290143
        CHANNELS 3 Zrotation Xrotation Yrotation
        JOINT LeftToeBase
        {
          OFFSET 6.767401 0.162400 13.006073
          CHANNELS 3 Zrotation Xrotation Yrotation
          End Site
          {
            OFFSET 0.000000 4.000000 0.000000
          }
        }
      }
    }
  }
  JOINT Spine
  {
    OFFSET -0.415589 12.517357 -4.167231
    CHANNELS 3 Zrotation Xrotation Yrotation
    JOINT Spine1
    {
      OFFSET -1.398646 14.071631 2.188838
      CHANNELS 3 Zrotation Xrotation Yrotation
      JOINT Spine2
      {
        OFFSET -1.011341 4.353130 3.099259
        CHANNELS 3 Zrotation Xrotation Yrotation
        JOINT Neck
        {
          OFFSET -5.147295 21.729898 -0.439379
          CHANNELS 3 Zrotation Xrotation Yrotation
          JOINT Head
          {
            OFFSET -3.715601 6.664813 6.722395
            CHANNELS 3 Zrotation Xrotation Yrotation
            End Site
            {
              OFFSET 0.000000 4.000000 0.000000
            }
          }
        }
        JOINT RightShoulder
        {
          OFFSET -9.750731 10.267544 -2.760213
          CHANNELS 3 Zrotation Xrotation Yrotation
          JOINT RightArm
          {
            OFFSET -11.699198 -2.574575 0.258219
            CHANNELS 3 Zrotation Xrotation Yrotation
            JOINT RightForeArm
            {
              OFFSET -0.232339 -25.277090 6.982097
              CHANNELS 3 Zrotation Xrotation Yrotation
              JOINT RightHand
              {
                OFFSET 9.409205 -13.029313 18.553339
                CHANNELS 3 Zrotation Xrotation Yrotation
                End Site
                {
                  OFFSET 0.000000 4.000000 0.000000
                }
              }
            }
          }
        }
        JOINT LeftShoulder
        {
          OFFSET 4.046185 13.245619 0.261812
          CHANNELS 3 Zrotation Xrotation Yrotation
          JOINT LeftArm
          {
            OFFSET 12.622553 3.586483 2.816772
            CHANNELS 3 Zrotation Xrotation Yrotation
            JOINT LeftForeArm
            {
              OFFSET 13.925245 -20.901346 2.353512
              CHANNELS 3 Zrotation Xrotation Yrotation
              JOINT LeftHand
              {
                OFFSET -6.706360 -10.673225 19.704679
                CHANNELS 3 Zrotation Xrotation Yrotation
                End Site
                {
                  OFFSET 0.000000 4.000000 0.000000
                }
              }
            }
          }
        }
      }
    }
  }
}
MOTION
Frames: 6
Frame Time: 0.050000
0.000000 0.000000 0.000000 -0.000000 0.000000 0.000000 -0.000000 0.000000 0.000000 -0.000000 0.000000 0.000000 -0.000000 0.000000 0.000000 -0.000000 0.000000 0.000000 -0.000000 0.000000 0.000000 -0.000000 0.000000 0.000000 -0.000000 0.000000 0.000000 -0.000000 0.000000 0.000000 -0.000000 0.000000 0.000000 -0.000000 0.000000 0.000000 -0.000000 0.000000 0.000000 -0.000000 0.000000 0.000000 -0.000000 0.000000 0.000000 -0.000000 0.000000 0.000000 -0.000000 0.000000 0.000000 -0.000000 0.000000 0.000000 -0.000000 0.000000 0.000000 -0.000000 0.000000 0.000000 -0.000000 0.000000 0.000000 -0.000000 0.000000 0.000000 -0.000000 0.000000 0.000000
-2.788434 1.637501 -5.143418 2.121358 -0.413561 0.698963 0.094282 -2.670277 0.390586 -1.360795 -0.927287 -1.543178 -1.780298 1.225927 2.510168 0.959709 2.760546 -1.905485 -2.994936 0.398163 -1.173425 -4.299568 9.784727 0.971780 2.861594 -5.899669 3.068464 1.986586 -3.989754 -2.897159 -2.132889 0.806890 -0.643227 -0.761029 0.306163 0.671384 0.323030 -0.375668 -0.648781 -0.569382 1.034446 1.711859 0.983580 -1.366300 -1.754686 -0.400331 -0.772952 1.921146 -0.922124 3.035538 -2.484981 0.103272 1.440848 0.952844 1.737829 -3.981508 -0.321764 -0.546767 -0.576963 1.639427 -1.819711 -0.239693 -2.417896 0.958961 -7.294192 1.800913 2.112550 7.832229 -1.360657
-5.172031 3.036153 -9.769662 2.375862 -0.281870 0.786365 1.197813 -4.668603 1.019183 -2.047108 -4.658989 -2.566016 -3.182116 6.332878 2.962351 1.435828 3.217649 -1.607218 -5.610399 2.242292 -1.663740 -9.917242 25.333151 4.733726 4.029596 -14.356756 4.185670 6.649631 -13.854394 -4.286608 -1.949025 0.159848 -0.856605 -1.275797 -0.156764 0.618764 0.169032 0.065760 -0.607341 -0.308223 1.295472 1.663123 0.959756 -1.086537 -1.572325 -1.839998 -0.036400 0.959330 -1.327399 6.851330 -1.820869 -0.458018 3.146704 2.283480 4.192293 -9.789512 -0.657677 -0.645018 -0.293990 2.869690 -2.994257 -0.885536 -4.381587 -1.714117 -15.015474 -0.096334 6.175220 16.617283 -0.008777
-7.491777 3.964198 -14.246720 1.285524 0.284102 0.434430 1.434572 -8.960428 2.453991 1.127628 -8.632179 -5.421594 -5.820026 15.474323 4.617673 0.613838 1.460350 -0.764369 -9.054025 8.098451 -0.538303 -15.213795 37.887479 9.970536 2.607278 -20.660224 3.725375 13.610263 -28.041790 -4.198597 -0.390237 -1.989364 -0.734844 -1.152839 0.821068 0.295362 -0.979593 -0.160016 -0.230500 1.200181 1.882444 0.733034 0.002141 -0.836758 -0.472111 -3.116908 1.467617 -1.741762 -1.838702 11.505300 0.985290 -1.247179 0.436178 0.622922 7.230920 -12.341764 1.788661 0.924435 0.745349 1.536730 -4.249032 -2.233246 -3.660963 -10.167424 -23.027593 -8.172208 12.196610 27.036960 4.799579
-10.063039 4.621851 -18.914324 -1.399262 1.194155 -0.413228 2.043840 -16.333243 4.918820 6.737806 -10.318590 -10.801105 -7.064440 26.608367 12.254352 -4.457460 -1.917684 -5.696067 -13.220049 17.385100 3.225742 -12.699511 35.563447 8.438144 4.699729 -16.473145 -5.236728 24.302512 -36.782810 10.952710 1.952737 -1.438362 0.344715 -0.204707 0.448880 -0.087246 -4.317085 0.278372 0.233314 4.886387 0.459952 -0.401923 -0.902514 -0.951631 0.377106 -0.268827 1.292230 -7.265014 -4.016843 13.678687 6.266076 -2.321665 -6.422604 -5.886390 10.047827 -8.290312 7.768485 4.130188 0.314394 -2.949210 -6.372429 -6.484453 -1.928907 -18.021072 -26.023159 -17.232387 17.497954 36.038798 11.192562
-12.468500 3.247237 -23.709124 -3.257927 2.024944 -0.966657 -1.836097 -24.534769 5.946904 11.767094 -12.678919 -14.613921 -6.774371 35.879790 16.439476 -6.741154 -1.739225 -9.793337 -14.915811 24.073171 7.936471 -6.256033 23.892134 1.526261 9.070815 -20.507899 -5.366645 18.231156 -28.332601 10.110724 2.635172 -0.724428 1.288481 1.286599 1.086922 -0.132745 -6.626988 0.240096 0.288208 8.100174 -1.609020 -1.830581 -2.101528 -1.073415 1.531841 3.535918 -0.492855 -9.362339 -6.685946 13.779680 7.867825 -2.799511 -9.575602 -9.515819 11.015270 -5.309004 10.894256 6.109522 -0.605051 -7.453631 -7.590724 -11.466989 -0.755857 -18.883002 -23.129462 -18.895559 18.935644 37.855062 15.308051
